<?xml version="1.0" encoding="UTF-8"?>
<svg version="1.1" xmlns="http://www.w3.org/2000/svg" width="256" height="256">
<path d="M0 0 C3.26269829 1.29148474 4.5619688 2.48644618 6.8125 5.125 C8.47940009 9.16065285 8.69730573 12.69489505 8 17 C5.9949912 20.8026029 4.57313738 22.61790841 1 25 C0.63441883 28.35503476 0.63441883 28.35503476 0.8125 32.125 C0.83957031 33.40632813 0.86664063 34.68765625 0.89453125 36.0078125 C0.94673828 37.48894531 0.94673828 37.48894531 1 39 C1.54785156 38.40574219 2.09570312 37.81148437 2.66015625 37.19921875 C18.7993789 20.32520222 38.58291357 9.22552736 61 3 C62.76537109 2.48953125 62.76537109 2.48953125 64.56640625 1.96875 C95.99742852 -5.48361093 130.67309102 0.68237195 158.26123047 16.92480469 C168.08779587 23.00121497 176.9113426 30.78213082 185 39 C185.13526139 36.75165504 185.23210804 34.50097486 185.3125 32.25 C185.37050781 30.99703125 185.42851562 29.7440625 185.48828125 28.453125 C185.35181454 24.8565849 185.35181454 24.8565849 182.60546875 22.796875 C181.74566406 22.20390625 180.88585937 21.6109375 180 21 C177.33425662 16.91252682 177.32756124 12.73167277 178 8 C180.07921266 3.91583228 181.75238288 1.66735947 186 0 C191.1033509 -0.65408074 195.54014765 -0.83420134 200.0625 1.75 C203.82858995 6.12352382 204.5451714 9.7634306 204.4609375 15.44921875 C203.7054405 19.63006233 201.30223464 22.41638637 198 25 C197.34 25 196.68 25 196 25 C195.46184799 47.87220923 195.46184799 47.87220923 204.82763672 68.23144531 C210.44640215 76.7075671 213.4993014 87.01783464 216.3125 96.6875 C216.55508545 97.51789795 216.7976709 98.3482959 217.04760742 99.20385742 C220.45173537 111.50275872 221.34973694 123.53689495 221.31567383 136.22729492 C221.31252649 138.66696476 221.33602139 141.10540184 221.36132812 143.54492188 C221.4851721 174.23813392 212.6245117 202.87316075 191.0625 225.3125 C168.66459012 246.85159432 135.70325676 256.05119076 105.19921875 256.203125 C104.28276077 256.20882507 103.3663028 256.21452515 102.42207336 256.22039795 C100.48834363 256.22979191 98.55459828 256.23635945 96.62084961 256.24023438 C93.73325757 256.24984767 90.84640722 256.28088678 87.95898438 256.3125 C71.80310936 256.40541692 55.85458476 254.97430957 40.3125 250.3125 C39.45293701 250.05976318 38.59337402 249.80702637 37.70776367 249.54663086 C11.53019991 241.50853629 -9.74827096 225.16167645 -23 201 C-31.11638699 185.32105007 -35.10150483 167.11658426 -35.203125 149.50390625 C-35.20882507 148.71209457 -35.21452515 147.9202829 -35.22039795 147.10447693 C-35.22978871 145.43465483 -35.23635815 143.7648147 -35.24023438 142.0949707 C-35.24985511 139.60007273 -35.28089961 137.10603057 -35.3125 134.61132812 C-35.40684515 120.4152406 -33.58865482 106.86951917 -29.4375 93.25 C-29.06830444 92.02845215 -29.06830444 92.02845215 -28.69165039 90.78222656 C-25.13207634 79.60867572 -20.3216819 67.73874965 -13.2421875 58.328125 C-9.53238494 52.54266 -10.21677703 45.64263258 -10.1875 39 C-10.16431886 37.63928348 -10.13894608 36.27860245 -10.11132812 34.91796875 C-10.05270607 31.61168509 -10.01624062 28.30671818 -10 25 C-10.92039062 24.566875 -10.92039062 24.566875 -11.859375 24.125 C-14.96222535 22.49430493 -16.22158715 21.04870774 -18 18 C-18.8523475 12.89443846 -18.57787152 9.11588984 -16.1875 4.5 C-11.40041019 -0.97095979 -6.84224323 -0.64208734 0 0 Z " fill="#F2F2F2" transform="translate(35,0)"/>
<path d="M0 0 C1.66996033 -0.0076664 1.66996033 -0.0076664 3.37365723 -0.01548767 C7.03854819 -0.029339 10.7032501 -0.02842992 14.36816406 -0.02612305 C16.92873199 -0.030013 19.48929927 -0.03434828 22.04986572 -0.03910828 C27.41282509 -0.04656135 32.77571577 -0.04642553 38.13867188 -0.04101562 C44.30984569 -0.03498539 50.48079096 -0.04726896 56.6519258 -0.06858569 C62.61918137 -0.08842932 68.58636712 -0.09136298 74.55365753 -0.08785057 C77.07805161 -0.08836179 79.6024495 -0.09356177 82.12682343 -0.10366249 C85.66805771 -0.11609146 89.20877312 -0.1091957 92.75 -0.09765625 C93.778974 -0.10529999 94.807948 -0.11294373 95.86810303 -0.12081909 C113.04018666 0.00196709 127.92686011 6.48207898 140.01269531 18.52075195 C153.21198104 32.38885395 159.22277395 48.0198106 158.98095703 67.16577148 C158.42707902 83.30159502 150.11813758 100.2175326 138.46582031 111.3449707 C124.78371668 123.08524233 108.40671807 128.42858867 90.61206055 128.41992188 C89.12051201 128.42495979 89.12051201 128.42495979 87.59883118 128.43009949 C84.31750227 128.43958282 81.03622457 128.44155161 77.75488281 128.44262695 C75.4628955 128.44584247 73.17090839 128.44920676 70.87892151 128.45271301 C66.07316615 128.45869854 61.26742875 128.46055361 56.46166992 128.45996094 C50.33118943 128.45985961 44.20082552 128.47348449 38.07037258 128.49073315 C33.33374004 128.50190561 28.59713516 128.5038785 23.8604908 128.50335121 C21.60207787 128.50452448 19.34366406 128.50890921 17.08526421 128.51668358 C-6.5728717 128.59047033 -27.29714004 126.54065928 -45.36621094 109.2746582 C-59.2840483 94.0299682 -64.3236737 76.84729943 -63.54101562 56.66479492 C-62.41810163 41.31098487 -54.05841838 27.85431609 -43.36621094 17.2746582 C-42.77582031 16.65075195 -42.18542969 16.0268457 -41.57714844 15.3840332 C-37.35853435 11.25834014 -32.5852096 8.61092743 -27.36621094 5.9621582 C-26.70161865 5.6242627 -26.03702637 5.28636719 -25.35229492 4.93823242 C-16.92897533 0.84823705 -9.26489557 -0.02213254 0 0 Z " fill="#5F7C8A" transform="translate(80.3662109375,89.725341796875)"/>
<path d="M0 0 C3.26269829 1.29148474 4.5619688 2.48644618 6.8125 5.125 C8.47940009 9.16065285 8.69730573 12.69489505 8 17 C5.9949912 20.8026029 4.57313738 22.61790841 1 25 C0.63441883 28.35503476 0.63441883 28.35503476 0.8125 32.125 C0.83957031 33.40632813 0.86664063 34.68765625 0.89453125 36.0078125 C0.94673828 37.48894531 0.94673828 37.48894531 1 39 C1.54785156 38.40574219 2.09570312 37.81148437 2.66015625 37.19921875 C18.7993789 20.32520222 38.58291357 9.22552736 61 3 C62.76537109 2.48953125 62.76537109 2.48953125 64.56640625 1.96875 C95.99742852 -5.48361093 130.67309102 0.68237195 158.26123047 16.92480469 C168.08779587 23.00121497 176.9113426 30.78213082 185 39 C185.13526139 36.75165504 185.23210804 34.50097486 185.3125 32.25 C185.37050781 30.99703125 185.42851562 29.7440625 185.48828125 28.453125 C185.35181454 24.8565849 185.35181454 24.8565849 182.60546875 22.796875 C181.74566406 22.20390625 180.88585937 21.6109375 180 21 C177.33425662 16.91252682 177.32756124 12.73167277 178 8 C180.07921266 3.91583228 181.75238288 1.66735947 186 0 C191.1033509 -0.65408074 195.54014765 -0.83420134 200.0625 1.75 C203.82858995 6.12352382 204.5451714 9.7634306 204.4609375 15.44921875 C203.7054405 19.63006233 201.30223464 22.41638637 198 25 C197.34 25 196.68 25 196 25 C195.46184799 47.87220923 195.46184799 47.87220923 204.82763672 68.23144531 C210.44640215 76.7075671 213.4993014 87.01783464 216.3125 96.6875 C216.55508545 97.51789795 216.7976709 98.3482959 217.04760742 99.20385742 C220.45173537 111.50275872 221.34973694 123.53689495 221.31567383 136.22729492 C221.31252649 138.66696476 221.33602139 141.10540184 221.36132812 143.54492188 C221.4851721 174.23813392 212.6245117 202.87316075 191.0625 225.3125 C168.66459012 246.85159432 135.70325676 256.05119076 105.19921875 256.203125 C104.28276077 256.20882507 103.3663028 256.21452515 102.42207336 256.22039795 C100.48834363 256.22979191 98.55459828 256.23635945 96.62084961 256.24023438 C93.73325757 256.24984767 90.84640722 256.28088678 87.95898438 256.3125 C71.80310936 256.40541692 55.85458476 254.97430957 40.3125 250.3125 C39.45293701 250.05976318 38.59337402 249.80702637 37.70776367 249.54663086 C11.53019991 241.50853629 -9.74827096 225.16167645 -23 201 C-31.11638699 185.32105007 -35.10150483 167.11658426 -35.203125 149.50390625 C-35.20882507 148.71209457 -35.21452515 147.9202829 -35.22039795 147.10447693 C-35.22978871 145.43465483 -35.23635815 143.7648147 -35.24023438 142.0949707 C-35.24985511 139.60007273 -35.28089961 137.10603057 -35.3125 134.61132812 C-35.40684515 120.4152406 -33.58865482 106.86951917 -29.4375 93.25 C-29.06830444 92.02845215 -29.06830444 92.02845215 -28.69165039 90.78222656 C-25.13207634 79.60867572 -20.3216819 67.73874965 -13.2421875 58.328125 C-9.53238494 52.54266 -10.21677703 45.64263258 -10.1875 39 C-10.16431886 37.63928348 -10.13894608 36.27860245 -10.11132812 34.91796875 C-10.05270607 31.61168509 -10.01624062 28.30671818 -10 25 C-10.92039062 24.566875 -10.92039062 24.566875 -11.859375 24.125 C-14.96222535 22.49430493 -16.22158715 21.04870774 -18 18 C-18.8523475 12.89443846 -18.57787152 9.11588984 -16.1875 4.5 C-11.40041019 -0.97095979 -6.84224323 -0.64208734 0 0 Z M53.5625 14.625 C52.86568115 14.87588379 52.1688623 15.12676758 51.45092773 15.38525391 C39.44868005 19.90956242 28.60815608 26.51933162 19 35 C18.15953125 35.72058594 17.3190625 36.44117187 16.453125 37.18359375 C-2.7593595 53.97996278 -16.15735996 76.11687819 -22 101 C-22.42732422 102.69962891 -22.42732422 102.69962891 -22.86328125 104.43359375 C-25.57853822 115.56486049 -26.21113914 126.29582276 -26.24023438 137.69873047 C-26.24986211 139.96750684 -26.28093054 142.23534432 -26.3125 144.50390625 C-26.41759286 158.70908664 -24.68803637 172.40490908 -19.375 185.6875 C-19.03017578 186.56760742 -18.68535156 187.44771484 -18.33007812 188.35449219 C-8.57070225 212.33242017 9.52849383 227.90790648 32.796875 238.2421875 C40.88529464 241.40402427 49.49172969 243.32591704 58 245 C59.35097778 245.27251587 59.35097778 245.27251587 60.72924805 245.55053711 C69.9533677 247.2019913 79.05913707 247.33882881 88.39916992 247.31567383 C91.03412094 247.31253382 93.66792277 247.3359863 96.30273438 247.36132812 C127.44580121 247.47493597 161.57097464 240.53079744 184.796875 218.3046875 C199.64158522 202.77564667 207.10331877 184.80600235 211 164 C211.17797119 163.08452393 211.35594238 162.16904785 211.53930664 161.22583008 C212.06207182 157.5653657 212.16199829 153.97400891 212.16796875 150.28515625 C212.17129715 149.55235947 212.17462555 148.81956268 212.17805481 148.06455994 C212.18309841 146.51562115 212.18546393 144.96667159 212.18530273 143.41772461 C212.1874645 141.10055469 212.20557839 138.7838812 212.22460938 136.46679688 C212.27638899 123.27137453 211.16540043 110.48038339 207.4375 97.75 C207.05440674 96.43237671 207.05440674 96.43237671 206.66357422 95.08813477 C200.56113692 75.09127549 189.79256245 58.50878418 176 43 C175.42894531 42.34386719 174.85789063 41.68773437 174.26953125 41.01171875 C157.83260862 23.30716713 130.49630074 10.14265091 106.35644531 8.796875 C102.89413195 8.69147375 99.43418757 8.67371931 95.97045898 8.68432617 C93.83329364 8.68746942 91.69754053 8.66400978 89.56054688 8.63867188 C77.17128567 8.58082944 65.26715583 10.36958754 53.5625 14.625 Z " fill="#020303" transform="translate(35,0)"/>
<path d="M0 0 C1.66996033 -0.0076664 1.66996033 -0.0076664 3.37365723 -0.01548767 C7.03854819 -0.029339 10.7032501 -0.02842992 14.36816406 -0.02612305 C16.92873199 -0.030013 19.48929927 -0.03434828 22.04986572 -0.03910828 C27.41282509 -0.04656135 32.77571577 -0.04642553 38.13867188 -0.04101562 C44.30984569 -0.03498539 50.48079096 -0.04726896 56.6519258 -0.06858569 C62.61918137 -0.08842932 68.58636712 -0.09136298 74.55365753 -0.08785057 C77.07805161 -0.08836179 79.6024495 -0.09356177 82.12682343 -0.10366249 C85.66805771 -0.11609146 89.20877312 -0.1091957 92.75 -0.09765625 C93.778974 -0.10529999 94.807948 -0.11294373 95.86810303 -0.12081909 C113.04018666 0.00196709 127.92686011 6.48207898 140.01269531 18.52075195 C153.21198104 32.38885395 159.22277395 48.0198106 158.98095703 67.16577148 C158.42707902 83.30159502 150.11813758 100.2175326 138.46582031 111.3449707 C124.78371668 123.08524233 108.40671807 128.42858867 90.61206055 128.41992188 C89.12051201 128.42495979 89.12051201 128.42495979 87.59883118 128.43009949 C84.31750227 128.43958282 81.03622457 128.44155161 77.75488281 128.44262695 C75.4628955 128.44584247 73.17090839 128.44920676 70.87892151 128.45271301 C66.07316615 128.45869854 61.26742875 128.46055361 56.46166992 128.45996094 C50.33118943 128.45985961 44.20082552 128.47348449 38.07037258 128.49073315 C33.33374004 128.50190561 28.59713516 128.5038785 23.8604908 128.50335121 C21.60207787 128.50452448 19.34366406 128.50890921 17.08526421 128.51668358 C-6.5728717 128.59047033 -27.29714004 126.54065928 -45.36621094 109.2746582 C-59.2840483 94.0299682 -64.3236737 76.84729943 -63.54101562 56.66479492 C-62.41810163 41.31098487 -54.05841838 27.85431609 -43.36621094 17.2746582 C-42.77582031 16.65075195 -42.18542969 16.0268457 -41.57714844 15.3840332 C-37.35853435 11.25834014 -32.5852096 8.61092743 -27.36621094 5.9621582 C-26.70161865 5.6242627 -26.03702637 5.28636719 -25.35229492 4.93823242 C-16.92897533 0.84823705 -9.26489557 -0.02213254 0 0 Z M-41.36621094 27.2746582 C-46.14141419 33.08159753 -49.73372014 39.23804773 -52.36621094 46.2746582 C-52.72328125 47.14477539 -53.08035156 48.01489258 -53.44824219 48.91137695 C-56.68072953 60.75466036 -55.23650438 75.16000733 -50.36621094 86.2746582 C-49.9653125 87.2130957 -49.56441406 88.1515332 -49.15136719 89.1184082 C-42.72307008 102.38492282 -30.88663412 111.94641413 -17.23283386 117.07617188 C-6.01574198 120.45517175 5.70706911 119.7475806 17.30566406 119.7434082 C19.71641209 119.75052163 22.12715845 119.75822233 24.53790283 119.76647949 C29.57772533 119.77988232 34.6173913 119.78151224 39.65722656 119.77563477 C46.07671128 119.76974701 52.49543757 119.80031312 58.91477585 119.84075165 C63.89088908 119.86675709 68.86682288 119.86949434 73.84299469 119.86585999 C76.20779575 119.86753964 78.57260614 119.87706916 80.93733978 119.89500427 C101.65838797 120.03486988 118.70988075 117.78365905 134.44628906 102.9621582 C138.70161598 98.46410319 141.85953714 93.79910784 144.63378906 88.2746582 C145.12105469 87.35555664 145.60832031 86.43645508 146.11035156 85.48950195 C151.49727141 73.8278738 151.47463266 59.50858661 148.07128906 47.2121582 C142.55846882 32.31212306 133.08655614 20.45829077 118.75398254 13.20036316 C105.3115294 7.33120754 92.10148932 7.68629287 77.69628906 7.7434082 C75.28360844 7.74070794 72.87092889 7.73682109 70.45825195 7.73181152 C65.42193151 7.72594169 60.38589643 7.73439824 55.34960938 7.75317383 C48.92781349 7.77596131 42.50668657 7.76282472 36.08491516 7.73888397 C31.1088771 7.72435797 26.13299492 7.72906312 21.1569519 7.73939514 C18.79051634 7.74204365 16.42406615 7.73885957 14.05764771 7.72947693 C-8.271764 7.66034963 -25.25070006 10.48202502 -41.36621094 27.2746582 Z " fill="#050606" transform="translate(80.3662109375,89.725341796875)"/>
<path d="M0 0 C29.44922313 9.73487609 51.24278812 32.81995292 65 60 C68.65324949 67.43104158 71.462737 74.99325445 73.75 82.9375 C73.94883789 83.61603027 74.14767578 84.29456055 74.35253906 84.99365234 C77.66149233 97.17661666 78.35291168 109.60083099 78.31567383 122.15136719 C78.31251137 124.36703724 78.33610739 126.58136799 78.36132812 128.796875 C78.46875285 153.03152379 71.97985186 177.29188075 56 196 C55.2575 196.99 54.515 197.98 53.75 199 C45.63539815 208.47138415 34.83701537 214.24835947 24 220 C24 219.01 24 218.02 24 217 C25.6171875 215.7109375 25.6171875 215.7109375 27.875 214.375 C45.05741789 203.46038234 54.41426958 187.91445673 63 170 C62.34 169.67 61.68 169.34 61 169 C61.40992188 168.16597656 61.81984375 167.33195313 62.2421875 166.47265625 C62.78101563 165.34730469 63.31984375 164.22195312 63.875 163.0625 C64.40867187 161.96035156 64.94234375 160.85820312 65.4921875 159.72265625 C68.53714022 152.72870766 69.30970404 145.56220283 69.30078125 138.00390625 C69.30720894 136.75528053 69.30720894 136.75528053 69.31376648 135.48143005 C69.31947254 133.72761944 69.32003776 131.97378517 69.31567383 130.2199707 C69.31254477 127.59998709 69.33591193 124.98117017 69.36132812 122.36132812 C69.41806607 107.52929558 67.75571806 93.15144628 63.3125 78.9375 C63.05831299 78.1129834 62.80412598 77.2884668 62.54223633 76.43896484 C56.24764193 56.80344767 45.70517903 40.24437606 32 25 C31.43023437 24.34644531 30.86046875 23.69289063 30.2734375 23.01953125 C22.10045157 14.19689772 11.0151481 6.69115719 0 2 C0 1.34 0 0.68 0 0 Z " fill="#CAD3D7" transform="translate(169,16)"/>
<path d="M0 0 C0.84671265 -0.00145523 1.69342529 -0.00291046 2.5657959 -0.00440979 C4.35102794 -0.00275421 6.13627476 0.00876892 7.92138672 0.02954102 C10.64742926 0.05850005 13.37152591 0.05014247 16.09765625 0.03710938 C17.83594691 0.04334731 19.57423146 0.05173868 21.3125 0.0625 C22.12408569 0.05956436 22.93567139 0.05662872 23.77185059 0.05360413 C28.37221007 0.12995147 31.41629795 0.52257745 35.15625 3.49609375 C37.26797022 7.71953419 36.65748261 12.91010344 36.15625 17.49609375 C33.55146324 24.55121125 27.68714747 29.42200013 21.36328125 33.13671875 C15.28768364 35.71200251 8.06562912 35.54693486 1.71484375 33.83984375 C-4.40709213 31.06041298 -8.84713315 26.20118755 -12.78125 20.87109375 C-14.45031539 15.56935664 -14.91831383 9.9678859 -13.84375 4.49609375 C-9.61563714 -0.10187494 -5.86033192 -0.08111878 0 0 Z " fill="#010506" transform="translate(116.84375,161.50390625)"/>
<path d="M0 0 C5.00563202 3.62908321 9.41341185 7.86516585 11.5 13.8125 C12.41771194 20.01400796 12.00614923 25.55254548 8.8359375 31.02734375 C5.28926494 35.76661089 1.12727838 38.95920472 -4.5 40.8125 C-10.62910465 41.60039686 -16.28559584 41.33720424 -21.7109375 38.22265625 C-25.83982027 34.96823119 -28.84415319 30.78004044 -30.5 25.8125 C-31.19545679 18.54994412 -31.41178679 12.40864753 -26.9296875 6.39453125 C-19.62042046 -1.69359211 -10.34919836 -3.51133516 0 0 Z " fill="#010405" transform="translate(197.5,121.1875)"/>
<path d="M0 0 C4.85030843 2.88562653 8.38107799 7.13345608 10.5 12.375 C11.25236076 18.98877599 11.42888275 25.78025214 7.98046875 31.65625 C4.38322303 35.83247195 -1.47174994 40.04888076 -7.0390625 40.6484375 C-14.28422886 40.88688601 -18.99755289 40.25187888 -24.5 35.375 C-29.26619062 30.71851709 -31.76285675 25.87691597 -32 19.1875 C-31.84283811 11.9089402 -28.84468087 6.7424338 -23.77734375 1.640625 C-17.11982624 -3.39138399 -7.45912756 -3.34813112 0 0 Z " fill="#010404" transform="translate(78.5,121.625)"/>
<path d="M0 0 C10.59223296 1.2406715 19.46424276 8.91095494 26 17 C35.79680974 31.49790584 38.83489592 45.58926117 37 63 C36.0767918 67.67249617 34.22240366 71.80278142 32 76 C31.56558594 76.8765625 31.13117188 77.753125 30.68359375 78.65625 C24.70257355 89.69813344 15.34008109 97.755012 4 103 C1.14453125 103.68359375 1.14453125 103.68359375 -1 104 C1.7544698 101.12522002 4.61604448 98.74088047 7.8125 96.375 C18.49863762 87.8543352 25.84343318 74.42557189 27.75390625 60.875 C29.16472793 44.39301975 26.37048004 29.09362748 16.2109375 15.62890625 C14.83528761 14.06092616 13.42201067 12.52606023 12 11 C12 10.34 12 9.68 12 9 C11.42765625 8.73316406 10.8553125 8.46632813 10.265625 8.19140625 C7.90688039 6.95103193 5.876888 5.54054336 3.75 3.9375 C3.04359375 3.41027344 2.3371875 2.88304688 1.609375 2.33984375 C1.07828125 1.89769531 0.5471875 1.45554687 0 1 C0 0.67 0 0.34 0 0 Z " fill="#36464E" transform="translate(193,102)"/>
<path d="M0 0 C4.10219771 1.81259899 6.76415359 4.10797107 9 8 C9.75221681 12.16505233 10.00901339 16.14579827 7.94140625 19.9453125 C5.45481967 23.00005091 3.50859086 24.8299495 -0.42578125 25.2734375 C-8.25299519 25.54881986 -8.25299519 25.54881986 -12.0625 22.75 C-15.48630504 17.89040575 -16.63418719 15.13047618 -16 9 C-12.28890163 1.85269944 -8.07469431 -0.86514582 0 0 Z " fill="#00B8D0" transform="translate(191,128)"/>
<path d="M0 0 C4.36350222 2.22291622 7.09544338 4.45022584 9 9 C9.77944541 15.01286459 8.38668967 18.20218963 5 23 C0.64812411 25.77779312 -4.00500391 25.79447969 -9 25 C-12.12177233 23.31712073 -14.39137035 21.2172593 -16 18 C-16.62133059 13.69787555 -16.97036679 9.66604513 -14.73046875 5.8203125 C-10.35127182 0.68461197 -6.90203364 -0.92541233 0 0 Z " fill="#00B8D0" transform="translate(72,128)"/>
<path d="M0 0 C11.22 0 22.44 0 34 0 C31.61084439 10.75120023 31.61084439 10.75120023 25 15 C20.97100082 17.21594955 17.56480502 17.47222121 13 17 C7.58946321 14.57458696 4.29131408 11.93697112 1 7 C0.67 4.69 0.34 2.38 0 0 Z " fill="#00B9D0" transform="translate(111,171)"/>
<path d="M0 0 C1.05368774 0.00012085 1.05368774 0.00012085 2.12866211 0.00024414 C4.27087312 -0.00194055 6.41256783 -0.02008824 8.5546875 -0.0390625 C9.91080552 -0.04199671 11.266926 -0.04398132 12.62304688 -0.04492188 C13.86304443 -0.04903076 15.10304199 -0.05313965 16.38061523 -0.05737305 C19.34570312 0.18554688 19.34570312 0.18554688 21.34570312 2.18554688 C20.79014757 6.74110243 20.79014757 6.74110243 19.34570312 8.18554688 C15.08821886 8.40364443 10.82524588 8.37133848 6.56274414 8.37084961 C4.42053313 8.3730343 2.27883842 8.39118199 0.13671875 8.41015625 C-1.21939927 8.41309046 -2.57551975 8.41507507 -3.93164062 8.41601562 C-5.17163818 8.42012451 -6.41163574 8.4242334 -7.68920898 8.4284668 C-10.65429688 8.18554688 -10.65429688 8.18554688 -12.65429688 6.18554688 C-11.67210083 -1.86846067 -6.95887914 0.02524407 0 0 Z " fill="#010101" transform="translate(123.654296875,72.814453125)"/>
<path d="M0 0 C1.27875 0.00257812 2.5575 0.00515625 3.875 0.0078125 C5.15375 0.00523438 6.4325 0.00265625 7.75 0 C10.875 0.1328125 10.875 0.1328125 11.875 1.1328125 C12 4.1328125 12 4.1328125 11.875 7.1328125 C10.875 8.1328125 10.875 8.1328125 7.75 8.265625 C6.47125 8.26304688 5.1925 8.26046875 3.875 8.2578125 C2.59625 8.26039062 1.3175 8.26296875 0 8.265625 C-3.125 8.1328125 -3.125 8.1328125 -4.125 7.1328125 C-4.25 4.1328125 -4.25 4.1328125 -4.125 1.1328125 C-3.125 0.1328125 -3.125 0.1328125 0 0 Z " fill="#050505" transform="translate(124.125,59.8671875)"/>
<path d="M0 0 C3 0.125 3 0.125 4 1.125 C4.1875 3.5625 4.1875 3.5625 4 6.125 C3.34 6.785 2.68 7.445 2 8.125 C-2.55555556 7.56944444 -2.55555556 7.56944444 -4 6.125 C-4.125 3.625 -4.125 3.625 -4 1.125 C-3 0.125 -3 0.125 0 0 Z " fill="#01A1E8" transform="translate(226,8.875)"/>
<path d="M0 0 C1.4540625 0.0309375 1.4540625 0.0309375 2.9375 0.0625 C3.5625 2.9375 3.5625 2.9375 3.9375 6.0625 C3.2775 6.7225 2.6175 7.3825 1.9375 8.0625 C-2.61805556 7.50694444 -2.61805556 7.50694444 -4.0625 6.0625 C-4.1875 3.5625 -4.1875 3.5625 -4.0625 1.0625 C-3.0625 0.0625 -3.0625 0.0625 0 0 Z " fill="#01A2EA" transform="translate(30.0625,8.9375)"/>
<path d="M0 0 C0.66 0.66 1.32 1.32 2 2 C-2.95 4.475 -2.95 4.475 -8 7 C-6.5361389 2.60841671 -4.02168662 2.12052567 0 0 Z " fill="#C0C8CC" transform="translate(200,229)"/>
<path d="M0 0 C0.66 0 1.32 0 2 0 C1.25 2.9375 1.25 2.9375 0 6 C-2.125 6.875 -2.125 6.875 -4 7 C-2.79618552 4.50638429 -1.54571278 2.31856917 0 0 Z " fill="#E3E4E5" transform="translate(230,186)"/>
</svg>
