<?xml version="1.0" encoding="UTF-8"?>
<svg version="1.1" xmlns="http://www.w3.org/2000/svg" width="294" height="305">
<path d="M0 0 C2 2 2 2 2.35546875 4.6953125 C1.92299555 8.71588751 0.34863404 11.48068747 -1.6875 14.875 C-13.87426717 36.44843458 -15.74113807 60.80837466 -9.69335938 84.58544922 C-2.97506796 107.98118941 13.20551646 127.25002368 34.28027344 139.12841797 C54.15942834 149.72184561 78.28270385 153.10954728 100.125 147.25 C111.84800292 143.5996453 123.37553562 138.85449944 133.1875 131.3203125 C135 130 135 130 137.5 129.5 C140 130 140 130 142.4375 131.875 C144.82080621 136.64161241 143.46000639 140.04293067 142 145 C141.74992188 145.90878906 141.49984375 146.81757813 141.2421875 147.75390625 C135.70965925 166.0710606 125.56799977 181.97177488 112.33935547 195.609375 C111.24908679 196.74137835 110.18491203 197.89846857 109.12890625 199.0625 C103.88443741 204.71240159 97.43195286 208.83492294 91 213 C89.54207031 213.94939453 89.54207031 213.94939453 88.0546875 214.91796875 C61.97588428 231.01292496 30.5673124 234.02167439 1 228 C-3.44444998 226.91326928 -7.7101886 225.58648566 -12 224 C-12.95519531 223.65324219 -13.91039063 223.30648437 -14.89453125 222.94921875 C-28.17462805 217.77584771 -40.48258131 210.63963716 -51 201 C-51.90105469 200.18015625 -52.80210938 199.3603125 -53.73046875 198.515625 C-65.70342316 187.09994492 -74.27896252 174.04893456 -81 159 C-81.72316406 157.43572266 -81.72316406 157.43572266 -82.4609375 155.83984375 C-94.23407214 128.19081543 -92.58387541 95.90547145 -81.92724609 68.24511719 C-77.21524437 56.83606826 -70.91484618 46.47165064 -63 37 C-61.75283203 35.50726563 -61.75283203 35.50726563 -60.48046875 33.984375 C-49.04003081 20.73018322 -18.90595762 -6.30198587 0 0 Z " fill="#616161" transform="translate(130,34)"/>
</svg>
