<?xml version="1.0" encoding="UTF-8"?>
<svg version="1.1" xmlns="http://www.w3.org/2000/svg" width="236" height="236">
<path d="M0 0 C4.01352406 1.23493048 6.3089107 5.2413458 8.34777832 8.74273682 C9.60526589 11.14064176 10.809081 13.55863349 11.99609375 15.9921875 C12.43293991 16.87153961 12.86978607 17.75089172 13.31987 18.65689087 C14.70262682 21.44465383 16.07410511 24.23779116 17.4453125 27.03125 C18.38532607 28.93135667 19.32607379 30.83110032 20.26757812 32.73046875 C22.56450526 37.36823884 24.85133914 42.01085949 27.1328125 46.65625 C33.98054281 45.1200109 40.64365362 43.23141459 47.27734375 40.95703125 C47.982612 40.71564423 48.68788025 40.4742572 49.41452026 40.22555542 C52.33402944 39.22188527 55.25121537 38.2119245 58.16479492 37.19116211 C60.32417394 36.43699093 62.48780371 35.69623632 64.65234375 34.95703125 C65.30040482 34.72583084 65.94846588 34.49463043 66.61616516 34.25642395 C70.91072325 32.80138058 74.61108459 32.31301653 79.1328125 32.65625 C82.22382852 34.68981317 82.9798416 36.084067 83.93334961 39.65063477 C84.56231942 44.82614579 82.64370438 49.36256004 80.94921875 54.18359375 C80.44768532 55.66696983 80.44768532 55.66696983 79.9360199 57.18031311 C78.86982924 60.32312052 77.78294298 63.45830586 76.6953125 66.59375 C75.96671969 68.72934764 75.23949064 70.86541108 74.51367188 73.00195312 C72.73581396 78.22555094 70.94093251 83.44305519 69.1328125 88.65625 C82.03253587 95.53073869 82.03253587 95.53073869 95.09765625 102.08203125 C96.60295898 102.81196289 96.60295898 102.81196289 98.13867188 103.55664062 C100.14830675 104.5246393 102.16153153 105.48521005 104.17773438 106.43945312 C113.42028452 110.94875231 113.42028452 110.94875231 116.1328125 115.65625 C116.6953125 118.65625 116.6953125 118.65625 116.1328125 121.65625 C112.09607086 126.6119413 107.13653004 128.98060646 101.45703125 131.73828125 C100.5318721 132.19732346 99.60671295 132.65636566 98.65351868 133.12931824 C95.71369863 134.58529668 92.76721562 136.0271705 89.8203125 137.46875 C87.81920462 138.45675755 85.8185482 139.44568005 83.81835938 140.43554688 C78.92835524 142.85306742 74.0328134 145.25906212 69.1328125 147.65625 C70.78638199 152.76098027 72.44045337 157.86554756 74.0949707 162.9699707 C74.65662892 164.70299995 75.2181549 166.43607205 75.77954102 168.16918945 C76.59095238 170.67410648 77.40285439 173.17886404 78.21484375 175.68359375 C78.46184525 176.44647202 78.70884674 177.20935028 78.96333313 177.99534607 C79.20335556 178.73543411 79.44337799 179.47552216 79.69067383 180.23803711 C79.92436676 180.96151337 80.15805969 181.68498962 80.39883423 182.4303894 C80.91180605 183.98602641 81.44079093 185.53643352 81.98178101 187.08255005 C82.2568045 187.87329926 82.531828 188.66404846 82.81518555 189.47875977 C83.06729294 190.18887711 83.31940033 190.89899445 83.57914734 191.63063049 C84.49203941 194.97050471 84.15779559 197.38911641 83.1328125 200.65625 C81.0703125 203.15625 81.0703125 203.15625 78.1328125 204.65625 C71.77081281 204.2832721 66.16450173 202.55506867 60.1640625 200.49609375 C59.24314819 200.18676407 58.32223389 199.87743439 57.37341309 199.55873108 C54.45743732 198.57747408 51.54513242 197.58579811 48.6328125 196.59375 C46.64606735 195.92313444 44.6590903 195.25320547 42.671875 194.58398438 C37.8228024 192.94933583 32.97699214 191.30533918 28.1328125 189.65625 C26.10099305 192.24828221 24.45828268 194.77416636 23.01977539 197.73461914 C22.63249771 198.52546402 22.24522003 199.3163089 21.84620667 200.13111877 C21.43676315 200.97601364 21.02731964 201.82090851 20.60546875 202.69140625 C19.72234879 204.48779916 18.83887446 206.28401789 17.95507812 208.08007812 C16.57072467 210.90463153 15.18954403 213.7306205 13.81469727 216.55981445 C12.48303605 219.29565192 11.13893308 222.02508355 9.79296875 224.75390625 C9.38554947 225.60082535 8.97813019 226.44774445 8.55836487 227.32032776 C8.16793503 228.10802048 7.77750519 228.8957132 7.37524414 229.70727539 C7.03787735 230.39914444 6.70051056 231.09101349 6.35292053 231.80384827 C4.88295103 234.03559658 3.39645357 235.24907252 1.1328125 236.65625 C-2.85905801 237.07206984 -5.48168435 236.80258693 -8.8671875 234.65625 C-10.18341064 232.74533081 -10.18341064 232.74533081 -11.34082031 230.39013672 C-11.78097473 229.50937469 -12.22112915 228.62861267 -12.67462158 227.72116089 C-13.13519958 226.76903717 -13.59577759 225.81691345 -14.0703125 224.8359375 C-14.5529657 223.86214142 -15.0356189 222.88834534 -15.53289795 221.88504028 C-17.07234187 218.77255879 -18.59489155 215.65214867 -20.1171875 212.53125 C-21.15775228 210.42002947 -22.1994058 208.30934517 -23.2421875 206.19921875 C-25.79652145 201.02438581 -28.33703234 195.84294388 -30.8671875 190.65625 C-34.31350463 190.65625 -35.94528082 190.86139732 -39.04980469 191.95727539 C-40.27192657 192.38255272 -40.27192657 192.38255272 -41.51873779 192.81642151 C-42.39169495 193.12579147 -43.2646521 193.43516144 -44.1640625 193.75390625 C-46.02843293 194.39710184 -47.89302338 195.03965994 -49.7578125 195.68164062 C-52.68749304 196.6973646 -55.61514841 197.71803015 -58.5390625 198.75024414 C-61.3674277 199.74566625 -64.20241889 200.71986945 -67.0390625 201.69140625 C-67.90392273 202.00280045 -68.76878296 202.31419464 -69.65985107 202.63502502 C-75.22069761 204.51942733 -79.10429885 204.94147837 -84.8671875 203.65625 C-86.8671875 202.09375 -86.8671875 202.09375 -87.8671875 199.65625 C-88.23874647 193.58718129 -87.33489835 188.97299647 -85.3125 183.28125 C-85.05089081 182.51248535 -84.78928162 181.7437207 -84.51974487 180.95166016 C-83.68860596 178.51577121 -82.84122941 176.08594989 -81.9921875 173.65625 C-81.15344347 171.22558431 -80.31821899 168.79376543 -79.48605347 166.36083984 C-78.96966673 164.85440433 -78.44905512 163.34940754 -77.92337036 161.84619141 C-76.30366513 157.16228732 -75.01000258 152.47951224 -73.8671875 147.65625 C-74.38448425 147.40204285 -74.90178101 147.14783569 -75.43475342 146.88592529 C-80.82528194 144.23495965 -86.21011243 141.57268117 -91.59179688 138.90380859 C-93.60012673 137.9096918 -95.60988427 136.91845378 -97.62109375 135.93017578 C-100.51423575 134.50790489 -103.40205995 133.07530894 -106.2890625 131.640625 C-107.18711609 131.20192078 -108.08516968 130.76321655 -109.01043701 130.31121826 C-116.95140883 126.34215946 -116.95140883 126.34215946 -119.8671875 122.65625 C-120.3984375 120.65625 -120.3984375 120.65625 -120.3671875 118.65625 C-120.38265625 117.66625 -120.38265625 117.66625 -120.3984375 116.65625 C-119.47932341 113.19605579 -117.18367702 111.47055749 -114.203125 109.62695312 C-112.19524344 108.50845479 -110.16478316 107.45024449 -108.1171875 106.40625 C-106.99969116 105.82580933 -106.99969116 105.82580933 -105.85961914 105.23364258 C-98.85952336 101.61224199 -91.8157806 98.07380492 -84.74560547 94.59130859 C-83.3906122 93.91680583 -82.04133062 93.23078607 -80.69580078 92.53759766 C-79.98020996 92.17069824 -79.26461914 91.80379883 -78.52734375 91.42578125 C-77.87515869 91.08780518 -77.22297363 90.7498291 -76.55102539 90.40161133 C-74.8671875 89.65625 -74.8671875 89.65625 -72.8671875 89.65625 C-73.05510864 89.11025146 -73.24302979 88.56425293 -73.43664551 88.00170898 C-75.39775646 82.29595821 -77.34166471 76.58455203 -79.27587891 70.86962891 C-79.99905824 68.74021361 -80.72654754 66.61225682 -81.45849609 64.48583984 C-82.51247286 61.42142033 -83.55061598 58.35201488 -84.5859375 55.28125 C-84.91404419 54.33822021 -85.24215088 53.39519043 -85.5802002 52.42358398 C-87.40659451 46.94807589 -88.41991752 42.43567263 -87.8671875 36.65625 C-85.32600084 33.57602375 -83.81071261 32.74943767 -79.84155273 32.35742188 C-74.66259576 32.74682192 -70.22713014 34.24633099 -65.33984375 35.9375 C-63.85646767 36.43691101 -63.85646767 36.43691101 -62.34312439 36.94641113 C-59.20187242 38.00650042 -56.06582205 39.08112756 -52.9296875 40.15625 C-50.79394713 40.87987309 -48.65788254 41.60254001 -46.52148438 42.32421875 C-41.29957978 44.09050635 -36.08186269 45.86873906 -30.8671875 47.65625 C-30.5686084 46.89610596 -30.2700293 46.13596191 -29.96240234 45.3527832 C-28.63913855 42.09476968 -27.08084129 38.97758796 -25.4921875 35.84375 C-22.88746713 30.69143304 -20.31032748 25.52791082 -17.77734375 20.33984375 C-17.2447998 19.25614502 -16.71225586 18.17244629 -16.16357422 17.0559082 C-15.10045878 14.89208918 -14.04337333 12.72529592 -12.99267578 10.55541992 C-12.50138184 9.56002197 -12.01008789 8.56462402 -11.50390625 7.5390625 C-11.06780029 6.64590332 -10.63169434 5.75274414 -10.18237305 4.83251953 C-7.62749126 0.60489446 -4.64706812 0.36447593 0 0 Z M-43.6171875 76.90625 C-54.63221038 88.53212388 -60.73877812 103.05786314 -60.90234375 119.10546875 C-60.53826061 127.17745828 -58.92146972 134.19254328 -55.8671875 141.65625 C-55.54105469 142.49671875 -55.21492188 143.3371875 -54.87890625 144.203125 C-48.92933652 157.78977878 -37.06195881 167.37523697 -23.6171875 172.96875 C-22.04702661 173.56703544 -20.46199451 174.12715522 -18.8671875 174.65625 C-17.80113281 175.01332031 -16.73507813 175.37039062 -15.63671875 175.73828125 C-1.59710294 179.15725505 14.00123682 177.0129018 26.43212891 169.7578125 C33.85089586 165.22518658 40.14806756 160.30609394 45.1953125 153.21875 C45.62577881 152.61619385 46.05624512 152.0136377 46.49975586 151.39282227 C55.43455372 138.32984664 57.84104671 122.85999102 55.671875 107.36328125 C52.46375581 93.07771521 44.34983598 79.04849105 32.1328125 70.65625 C6.87441238 56.03943652 -21.51340505 55.96385273 -43.6171875 76.90625 Z " fill="#FFFFFF" transform="translate(119.8671875,-0.65625)"/>
<path d="M0 0 C8.14051999 6.43047641 13.81192686 16.58012246 16.03515625 26.66015625 C16.92709393 41.41368278 15.38271787 52.69709686 6.03515625 64.66015625 C5.55691406 65.27632813 5.07867187 65.8925 4.5859375 66.52734375 C-1.24408817 73.13568519 -11.20010147 78.57285085 -19.96484375 79.66015625 C-34.02589687 80.40096148 -44.41841098 79.33112603 -55.96484375 70.66015625 C-56.99609375 69.93828125 -58.02734375 69.21640625 -59.08984375 68.47265625 C-66.80102198 61.81397867 -71.98166237 50.68860629 -72.96484375 40.66015625 C-73.84824661 27.25828841 -70.46977928 15.62243773 -61.65234375 5.47265625 C-44.96883412 -12.21294731 -19.9426862 -13.5990882 0 0 Z " fill="#FFFFFF" transform="translate(145.96484375,82.33984375)"/>
</svg>
